<?xml version="1.0" encoding="UTF-8"?>
<svg enable-background="new 0 0 144.2 144.2" version="1.1" viewBox="0 0 144.2 144.2" xml:space="preserve" xmlns="http://www.w3.org/2000/svg" xmlns:xlink="http://www.w3.org/1999/xlink">
<style type="text/css">
	.st0{fill:hsla(349, 98%, 45%, 1);}
	.st1{fill:#FEFEFE;}
	.st2{clip-path:url(#SVGID_00000126307005173185535850000015026723739192629944_);}
	.st3{fill:url(#_x3C_Path_x3E__00000139292893659640491320000008553742753740994721_);}
	.st4{clip-path:url(#SVGID_00000023271387173890866350000008588737650348539326_);}
	.st5{fill:url(#_x3C_Path_x3E__00000155834924379683815790000011293570085757970339_);}
</style>
<path class="st0" d="M0,144.2h144.2V0H0L0,144.2z"/>

	
		<path class="st1" d="m126.6 66.4c0-3.1-5.8-5.2-17-6.4-5.4-0.6-11.7-0.9-18.8-0.9-6.2 0-12.7 0.2-19.6 0.7-11.8 0.8-24 2.4-34.2 4.5-0.8 0.2-1.7 0.4-2.4 0.6-0.5 0.1-0.9 0.2-1.3 0.3-7.3 1.8-16.3 4.3-15.7 8.4l0.8-0.3c-0.2-2.3 5.6-5 15.1-7.3 0.8-0.2 1.5-0.3 2.3-0.5l1.5-0.3c9-1.9 20.8-3.4 34.1-4.2 6.1-0.4 12.2-0.6 18-0.6 7.5 0 14.2 0.3 20 1 11.1 1.2 15.1 3.4 15.2 5h2z"/>
	
	<path class="st1" d="m59.1 52.2h-25.5l-11.4 45.6h25.7l1.8-7.1h-17.2l3.3-13.1h14.6l1.8-7h-14.7l2.8-11.3h16.9l1.9-7.1z"/>
	
		<path class="st1" d="m56.5 40.9c-1 0-2 0.6-3.8 1.6l-0.2 0.1-9 5.4-1.3 0.8 1.5 0.2 2 0.2h0.1l0.1-0.1 10.3-3.2c1.2-0.3 2.4-0.7 2.7-2 0.2-0.6 0.1-1.2-0.3-1.7-0.3-0.6-0.8-0.9-1.4-1.1-0.2-0.1-0.4-0.2-0.7-0.2z"/>
		<path class="st1" d="m72.5 81.5c-0.9 0.1-2.5 0.2-4.4 0.3-0.4 0-0.9 0.1-1.3 0.1l-2.7 10.7h8.5l2.8-11.4c-0.9 0.2-1.9 0.3-2.9 0.3z"/>
		<path class="st1" d="m62.7 47-1.8 7.1h12.8l-0.3 1.2-5.8 23.4c0.5 0 0.9-0.1 1.3-0.1 1.5-0.1 2.7-0.2 3.4-0.3 1.3-0.1 2.7-0.2 4-0.3l5.9-23.9h12l1.5-5.9 0.3-1.2h-33.3z"/>
		<path class="st1" d="m122.1 46.9c-4.2-2.5-8.2-3.1-10.8-3.1-4.4 0-8.2 1.5-10.9 4.2-2.4 2.5-3.8 5.8-3.8 9.3 0 4 1.8 6.9 3.9 9.2 1.1 1.2 2.2 2.1 3.2 3.1 1 0.9 1.9 1.8 2.7 2.9l0.6 0.9h0.2c0.9-0.2 1.8-0.5 2.7-0.7 2-0.5 3.9-1 5.5-1.6-0.5-0.9-1-1.6-1.5-2.3-0.8-1-1.7-1.9-2.5-2.7l-1.4-1.3c-0.7-0.6-1.5-1.3-2.2-2-1.5-1.6-2.7-3.4-2.7-5.6 0-3.1 2.4-6.4 6.7-6.4 1.6 0 4.8 0.5 8.1 3.6l0.6 0.6 0.2-0.8 1.6-6.5 0.1-0.2 0.1-0.4-0.4-0.2z"/>
		<path class="st1" d="m116.5 74.1c-1.8 0.6-3.7 1.1-5.8 1.7-0.6 0.2-1.3 0.3-1.9 0.5-0.2 0.1-0.5 0.1-0.7 0.2 0.1 0.3 0.1 0.6 0.1 0.9 0 3.7-2.4 7.4-7.6 7.4-3.5 0-6.8-1.5-9.9-4.4l-0.6-0.6-0.2 0.8-1.8 7.1v0.3l0.3 0.2c0.3 0.2 0.5 0.3 0.8 0.5 3.5 2 7.6 3.1 11.8 3.1 10.4 0 15.8-7.3 15.8-14.5 0.1-1.2-0.1-2.3-0.3-3.2z"/>
	
	
		<defs>
			<path id="c" d="m124.7 66.4c0.1 1-2.9 3.7-14.7 6.7-10 2.5-23.4 4.6-37.7 5.7-3 0.2-16.1 1.1-19.2 1.2h-0.2l-0.1 0.7v1.7h0.1c3.1-0.1 16.3-1.1 19.6-1.3 10.1-0.8 20-2 28.4-3.6 3.5-0.7 6.7-1.4 9.7-2.1 10.8-2.8 16.1-5.7 16-8.9l-1.9-0.1z"/>
		</defs>
		<clipPath id="e">
			<use xlink:href="#c"/>
		</clipPath>
		
			<g clip-path="url(#e)">
			
				<linearGradient id="b" x1="-161.31" x2="-161.06" y1="494.53" y2="494.53" gradientTransform="matrix(297.11 0 0 64.202 47979 -31676)" gradientUnits="userSpaceOnUse">
				<stop stop-color="#E4022C" offset="0"/>
				<stop stop-color="#FEFEFE" offset="1"/>
			</linearGradient>
			
				<path d="m52.8 66.4h73.9v16h-73.9v-16z" fill="url(#b)"/>
		</g>
	
	
		<defs>
			<path id="d" d="m17.6 73.3v0.4c0.7 2.9 6.6 5.5 15.4 6.7 2.2 0.3 3.8 0.4 6.3 0.6 1.1 0.1 4.4 0.2 4.4 0.2v-0.7s-3.8-0.2-5-0.2c-1.6-0.1-2.7-0.1-4.6-0.4-10.1-1.2-15.5-4.2-15.8-6.5l-0.7-0.1z"/>
		</defs>
		<clipPath id="f">
			<use xlink:href="#d"/>
		</clipPath>
		
			<g clip-path="url(#f)">
			
				<linearGradient id="a" x1="-161.91" x2="-161.66" y1="487.96" y2="487.96" gradientTransform="matrix(-46.344 -14.08 7.766 -25.562 -11252 10274)" gradientUnits="userSpaceOnUse">
				<stop stop-color="#E4022C" offset="0"/>
				<stop stop-color="#FEFEFE" offset="1"/>
			</linearGradient>
			
				<path d="m41.6 88.4-26.1-7.9 4.3-14.5 26.2 8-4.4 14.4z" fill="url(#a)"/>
		</g>
	

</svg>
